<svg width="33" height="33" xmlns="http://www.w3.org/2000/svg">
 <defs>
  <clipPath id="clip0">
   <rect id="svg_1" x="3.5" y="7" fill="white" height="19" width="26"/>
  </clipPath>
 </defs>
 <g>
  <title>background</title>
  <rect fill="none" id="canvas_background" height="402" width="582" y="-1" x="-1"/>
 </g>
 <g>
  <title>Layer 1</title>
  <g stroke="null" id="svg_2" clip-path="url(#clip0)">
   <path stroke="null" id="svg_3" fill="#12D2AC" d="m5.37754,17.08485l7.37226,-7.54923c1.9665,-2.01364 5.193,-2.0519 7.2066,-0.08545c0.0288,0.02815 0.0573,0.05663 0.0854,0.08545l0.0803,0.08216c1.9828,2.03047 1.9828,5.27227 0,7.30277l-7.3723,7.5492c-1.9664,2.0136 -5.19294,2.0519 -7.20658,0.0854c-0.02882,-0.0281 -0.0573,-0.0566 -0.08545,-0.0854l-0.08023,-0.0822c-1.98286,-2.0304 -1.98286,-5.2723 0,-7.3027z" clip-rule="evenodd" fill-rule="evenodd"/>
   <path stroke="null" id="svg_4" fill="#307AF2" d="m20.0479,9.53569l7.292,7.46706c2.0275,2.0761 2.0275,5.3909 0,7.467c-1.9664,2.0137 -5.1929,2.0519 -7.2066,0.0855c-0.0288,-0.0282 -0.0573,-0.0566 -0.0854,-0.0855l-7.2921,-7.467c-2.0274,-2.0761 -2.0274,-5.3909 0,-7.46706c1.9665,-2.01364 5.193,-2.0519 7.2066,-0.08545c0.0288,0.02815 0.0573,0.05663 0.0855,0.08545z" clip-rule="evenodd" fill-rule="evenodd"/>
   <path stroke="null" id="svg_5" fill="#7f00ff" d="m20.239036,21.894629l3.553,3.63827l-7.292,7.4671l-7.29207,-7.4671l3.55307,-3.63827c2.0166,-2.06499 5.3253,-2.10423 7.3903,-0.08763c0.0296,0.02886 0.0588,0.05807 0.0877,0.08763z" clip-rule="evenodd" fill-rule="evenodd"/>
  </g>
  <path d="m18.24999,24.824163c-0.166666,0 -0.333332,0 -0.333332,0.166666c0,0.166666 0,0.499996 0,0.833328c0,0.666662 0.094917,1.355492 0.333332,1.999987c0.258596,0.699053 0.576464,1.115564 0.666662,1.333324c0.06378,0.15398 0.102884,0.346016 0.166664,0.499996c0.090199,0.21776 0.166666,0.333332 0.166666,0.499996l0.166666,0l0,0" id="svg_6" fill-opacity="null" stroke-opacity="null" stroke-width="null" stroke="null" fill="none"/>
 </g>
</svg>