<?xml version="1.0" standalone="no"?><!DOCTYPE svg PUBLIC "-//W3C//DTD SVG 1.1//EN" "http://www.w3.org/Graphics/SVG/1.1/DTD/svg11.dtd"><svg t="1693469830156" class="icon" viewBox="0 0 1024 1024" version="1.1" xmlns="http://www.w3.org/2000/svg" p-id="12869" xmlns:xlink="http://www.w3.org/1999/xlink" width="16" height="16"><path d="M166.215111 967.111111A24.049778 24.049778 0 0 1 142.222222 942.933333V95.288889A24.049778 24.049778 0 0 1 166.215111 71.111111H661.333333a24.049778 24.049778 0 0 1 24.007111 24.177778v315.278222h-90.609777c-44.615111 0-72.433778 35.470222-72.433778 80.440889v170.140444c0 44.984889 27.804444 88.746667 72.433778 88.746667h90.567111V942.933333A24.049778 24.049778 0 0 1 661.333333 967.111111H166.215111z m74.979556-448a48.696889 48.696889 0 1 0 48.682666-49.066667 48.910222 48.910222 0 0 0-48.682666 49.066667z m176.355555-103.950222a24.007111 24.007111 0 0 0 48 0 42.865778 42.865778 0 0 1 42.666667-42.965333 24.177778 24.177778 0 0 0 0-48.355556 91.107556 91.107556 0 0 0-90.609778 91.306667l-0.056889 0.014222z m-29.553778-121.244445a165.148444 165.148444 0 0 0-48 116.849778 24.007111 24.007111 0 0 0 48 0 116.451556 116.451556 0 0 1 33.92-82.659555 114.773333 114.773333 0 0 1 81.92-34.133334 24.177778 24.177778 0 1 0 0-48.355555 162.133333 162.133333 0 0 0-115.783111 48.298666h-0.056889zM596.167111 695.324444a33.137778 33.137778 0 0 1-32.967111-33.28v-101.319111h366.421333v101.319111a33.208889 33.208889 0 0 1-33.009777 33.28H596.167111zM289.080889 519.111111c0-0.426667 0.355556-0.796444 0.796444-0.796444a0.711111 0.711111 0 0 1 0.696889 0.796444c0 0.398222-0.369778 0.611556-0.739555 0.611556s-0.753778-0.213333-0.753778-0.611556z m274.062222-0.099555v-24.490667a30.065778 30.065778 0 0 1 33.024-29.283556h300.330667a29.994667 29.994667 0 0 1 33.009778 29.283556v24.490667h-366.364445z" fill="#1890ff" p-id="12870"></path></svg>