<?xml version="1.0" standalone="no"?><!DOCTYPE svg PUBLIC "-//W3C//DTD SVG 1.1//EN" "http://www.w3.org/Graphics/SVG/1.1/DTD/svg11.dtd"><svg t="1695276186174" class="icon" viewBox="0 0 1024 1024" version="1.1" xmlns="http://www.w3.org/2000/svg" p-id="10512" xmlns:xlink="http://www.w3.org/1999/xlink" width="16" height="16"><path d="M292.576428 219.449172a73.852554 73.852554 0 0 0-51.410935 21.71632 73.852554 73.852554 0 0 0-21.758984 51.410934v438.848854c0.810629 20.564374 8.020959 37.715573 21.758984 51.410934 13.695361 13.738026 30.84656 20.948356 51.410935 21.758985h438.848853a73.852554 73.852554 0 0 0 51.410934-21.758985c13.738026-13.695361 20.948356-30.84656 21.758985-51.410934V292.576426a73.852554 73.852554 0 0 0-21.758985-51.410934 73.852554 73.852554 0 0 0-51.410934-21.758984H292.576428z m0-73.127254h438.848853c41.128747 0.725299 75.601805 15.017966 103.419174 42.835335 27.817369 27.817369 42.110035 62.290426 42.835334 103.419173v438.848854c-0.725299 41.128747-15.017966 75.601805-42.835334 103.419174-27.817369 27.817369-62.290426 42.110035-103.419174 42.835334H292.576428c-41.128747-0.725299-75.601805-15.017966-103.419174-42.835334-27.817369-27.817369-42.110035-62.290426-42.835335-103.419174V292.576426c0.725299-41.128747 15.017966-75.601805 42.835335-103.419173 27.817369-27.817369 62.290426-42.110035 103.419174-42.835335zM512.000854 0.024746c10.666169 0 19.412427 3.413174 26.281441 10.282186 6.826348 6.826348 10.282187 15.615271 10.282186 26.281441v146.297172h-73.127254V36.588373c0-10.666169 3.413174-19.412427 10.239523-26.281441A35.582339 35.582339 0 0 1 512.000854 0.024746z m182.8608 0c10.666169 0 19.412427 3.413174 26.28144 10.282186 6.826348 6.826348 10.239522 15.615271 10.239523 26.281441v146.297172H658.340692V36.588373c0-10.666169 3.413174-19.412427 10.239522-26.281441A35.582339 35.582339 0 0 1 694.904319 0.024746zM329.140055 0.024746c10.666169 0 19.455092 3.413174 26.28144 10.282186 6.869013 6.826348 10.282187 15.615271 10.282187 26.281441v146.297172H292.576428V36.588373c0-10.666169 3.413174-19.412427 10.282186-26.281441A35.582339 35.582339 0 0 1 329.140055 0.024746zM512.000854 1023.976961a35.582339 35.582339 0 0 1-26.28144-10.282187 35.582339 35.582339 0 0 1-10.282187-26.28144v-146.297173h73.127254v146.297173c0 10.666169-3.413174 19.412427-10.239522 26.28144A35.582339 35.582339 0 0 1 512.000854 1023.976961z m182.8608 0a35.582339 35.582339 0 0 1-26.28144-10.282187 35.582339 35.582339 0 0 1-10.282187-26.28144v-146.297173h73.127254v146.297173c0 10.666169-3.413174 19.412427-10.282187 26.28144a35.582339 35.582339 0 0 1-26.28144 10.282187z m-365.721599 0a35.582339 35.582339 0 0 1-26.281441-10.282187 35.582339 35.582339 0 0 1-10.239522-26.28144v-146.297173H365.661017v146.297173c0 10.666169-3.413174 19.412427-10.239522 26.28144a35.582339 35.582339 0 0 1-26.324105 10.282187zM0.024747 512.000853c0-10.666169 3.413174-19.412427 10.282186-26.28144a35.582339 35.582339 0 0 1 26.281441-10.282187h146.297172v73.127254H36.588374a35.582339 35.582339 0 0 1-26.281441-10.239522A35.582339 35.582339 0 0 1 0.024747 512.000853z m0-182.8608c0-10.666169 3.413174-19.412427 10.282186-26.28144a35.582339 35.582339 0 0 1 26.281441-10.239522h146.297172V365.661016H36.588374a35.582339 35.582339 0 0 1-26.281441-10.239522A35.582339 35.582339 0 0 1 0.024747 329.097389z m0 365.7216c0-10.666169 3.413174-19.455092 10.282186-26.28144a35.582339 35.582339 0 0 1 26.281441-10.282187h146.297172v73.127254H36.588374a35.582339 35.582339 0 0 1-26.281441-10.282187 35.582339 35.582339 0 0 1-10.282186-26.28144zM1023.976962 512.000853c0 10.666169-3.413174 19.412427-10.282187 26.28144a35.582339 35.582339 0 0 1-26.28144 10.282187h-146.297173v-73.127254h146.297173c10.666169 0 19.412427 3.413174 26.28144 10.239522 6.826348 6.911677 10.282187 15.657936 10.282187 26.324105z m0-182.8608c0 10.666169-3.413174 19.455092-10.282187 26.281441a35.582339 35.582339 0 0 1-26.28144 10.282186h-146.297173V292.576426h146.297173c10.666169 0 19.412427 3.413174 26.28144 10.282187 6.826348 6.826348 10.282187 15.615271 10.282187 26.28144z m0 365.7216c0 10.666169-3.413174 19.412427-10.282187 26.28144a35.582339 35.582339 0 0 1-26.28144 10.239522h-146.297173V658.340691h146.297173c10.666169 0 19.412427 3.413174 26.28144 10.239522 6.826348 6.869013 10.282187 15.657936 10.282187 26.324105z" fill="#000000" p-id="10513"></path></svg>