<?xml version="1.0" standalone="no"?><!DOCTYPE svg PUBLIC "-//W3C//DTD SVG 1.1//EN" "http://www.w3.org/Graphics/SVG/1.1/DTD/svg11.dtd"><svg t="1695276449964" class="icon" viewBox="0 0 1024 1024" version="1.1" xmlns="http://www.w3.org/2000/svg" p-id="19331" xmlns:xlink="http://www.w3.org/1999/xlink" width="16" height="16"><path d="M832 128v3.52l0.384 3.52 56.128 504.96H135.488l56.128-504.96L192 131.52V128h640m0-64H192a64 64 0 0 0-64 64l-64 576h896l-64-576a64 64 0 0 0-64-64z" fill="#666666" p-id="19332"></path><path d="M512 256c69.376 0 128 43.968 128 96S581.376 448 512 448s-128-43.968-128-96S442.624 256 512 256m0-64a178.176 178.176 0 0 0-192 160A178.176 178.176 0 0 0 512 512a178.176 178.176 0 0 0 192-160A178.176 178.176 0 0 0 512 192zM832 768h-128v64h128v-64zM640 768H512v64h128v-64z" fill="#666666" p-id="19333"></path><path d="M896 704v192H128v-192H64v192a64 64 0 0 0 64 64h768a64 64 0 0 0 64-64v-192z" fill="#666666" p-id="19334"></path></svg>