<?xml version="1.0" standalone="no"?><!DOCTYPE svg PUBLIC "-//W3C//DTD SVG 1.1//EN" "http://www.w3.org/Graphics/SVG/1.1/DTD/svg11.dtd"><svg t="1695278312190" class="icon" viewBox="0 0 1024 1024" version="1.1" xmlns="http://www.w3.org/2000/svg" p-id="23848" xmlns:xlink="http://www.w3.org/1999/xlink" width="16" height="16"><path d="M298.666667 426.666667l0 170.666667c0 12.8 8.533333 21.333333 21.333333 21.333333C332.8 618.666667 341.333333 610.133333 341.333333 597.333333l0-170.666667c0-12.8-8.533333-21.333333-21.333333-21.333333C307.2 405.333333 298.666667 413.866667 298.666667 426.666667z" p-id="23849"></path><path d="M213.333333 469.333333l0 128c0 12.8 8.533333 21.333333 21.333333 21.333333S256 610.133333 256 597.333333l0-128c0-12.8-8.533333-21.333333-21.333333-21.333333S213.333333 456.533333 213.333333 469.333333z" p-id="23850"></path><path d="M384 384l0 213.333333c0 12.8 8.533333 21.333333 21.333333 21.333333 12.8 0 21.333333-8.533333 21.333333-21.333333L426.666667 384c0-12.8-8.533333-21.333333-21.333333-21.333333C392.533333 362.666667 384 371.2 384 384z" p-id="23851"></path><path d="M529.066667 661.333333 170.666667 661.333333c-25.6 0-42.666667-17.066667-42.666667-42.666667l0-341.333333c0-25.6 17.066667-42.666667 42.666667-42.666667l597.333333 0c25.6 0 42.666667 17.066667 42.666667 42.666667l0 46.933333c29.866667 4.266667 59.733333 17.066667 85.333333 29.866667L896 192c0-25.6-17.066667-42.666667-42.666667-42.666667L85.333333 149.333333c-25.6 0-42.666667 17.066667-42.666667 42.666667l0 512c0 25.6 17.066667 42.666667 42.666667 42.666667l494.933333 0C554.666667 721.066667 537.6 691.2 529.066667 661.333333z" p-id="23852"></path><path d="M768 362.666667c-119.466667 0-213.333333 93.866667-213.333333 213.333333s93.866667 213.333333 213.333333 213.333333 213.333333-93.866667 213.333333-213.333333S887.466667 362.666667 768 362.666667zM896 490.666667l-42.666667 170.666667-42.666667 0-98.133333-76.8L682.666667 661.333333l0 42.666667-42.666667 0 0-42.666667 42.666667-128 0 0 0 0 42.666667 0 93.866667 72.533333 34.133333-115.2 0-42.666667 42.666667 0L896 490.666667z" p-id="23853"></path><path d="M725.333333 832 213.333333 832c-25.6 0-42.666667 17.066667-42.666667 42.666667s17.066667 42.666667 42.666667 42.666667l512 0c25.6 0 42.666667-17.066667 42.666667-42.666667S750.933333 832 725.333333 832z" p-id="23854"></path></svg>