<svg width="138" height="168" viewBox="0 0 138 168" fill="none" xmlns="http://www.w3.org/2000/svg">
<g clip-path="url(#clip0_26_6240)">
<path d="M133.22 135.262L76.8052 167.999L13.27 131.049L69.6922 98.3115L133.22 135.262Z" fill="#27DEBF"/>
<path opacity="0.5" d="M133.22 135.262L76.8052 167.999L13.27 131.049L69.6922 98.3115L133.22 135.262Z" fill="black"/>
<path d="M69.6922 53.9268V98.3121L13.27 131.049L13.2776 86.6641L69.6922 53.9268Z" fill="#27DEBF"/>
<path opacity="0.23" d="M69.6922 53.9268V98.3121L13.27 131.049L13.2776 86.6641L69.6922 53.9268Z" fill="black"/>
<path d="M76.8052 123.615V168L13.27 131.049L13.2776 86.6641L76.8052 123.615Z" fill="#27DEBF"/>
<path opacity="0.38" d="M76.8052 123.615V168L13.27 131.049L13.2776 86.6641L76.8052 123.615Z" fill="black"/>
<path d="M133.22 90.8774V135.263L69.6922 98.3121V53.9268L133.22 90.8774Z" fill="#27DEBF"/>
<path opacity="0.4" d="M133.22 90.8774V135.263L69.6922 98.3121V53.9268L133.22 90.8774Z" fill="black"/>
<path d="M133.22 135.262V90.877L76.8052 123.614V168L133.22 135.262Z" fill="#27DEBF"/>
<path opacity="0.23" d="M133.22 135.262V90.877L76.8052 123.614V168L133.22 135.262Z" fill="black"/>
<path d="M69.6922 53.9267L69.7687 29.3545L133.143 66.3512L133.22 90.8773L69.6922 53.9267Z" fill="#27DEBF"/>
<path opacity="0.2" d="M69.6922 53.9267L69.7687 29.3545L133.143 66.3512L133.22 90.8773L69.6922 53.9267Z" fill="black"/>
<path d="M76.8052 123.614L82.0902 102.125L138 69.6797L133.22 90.8767L76.8052 123.614Z" fill="#27DEBF"/>
<path opacity="0.3" d="M76.8052 123.614L82.0902 102.125L138 69.6797L133.22 90.8767L76.8052 123.614Z" fill="black"/>
<path d="M13.2776 86.6637L6.54703 64.3749L62.9616 31.6299L69.6922 53.9263L13.2776 86.6637Z" fill="#27DEBF"/>
<path opacity="0.1" d="M13.2776 86.6637L6.54703 64.3749L62.9616 31.6299L69.6922 53.9263L13.2776 86.6637Z" fill="black"/>
<path d="M13.2776 86.6637L0 68.2422L63.5352 105.193L76.8052 123.614L13.2776 86.6637Z" fill="#27DEBF"/>
<path opacity="0.45" d="M13.2776 86.6637L0 68.2422L63.5352 105.193L76.8052 123.614L13.2776 86.6637Z" fill="black"/>
<path opacity="0.7" d="M0 68.2422L63.5352 105.193L76.8052 123.614L62.8316 105.839L0 68.2422Z" fill="white"/>
<path opacity="0.7" d="M133.22 90.877L76.8052 123.614V168L77.853 124.506L133.22 90.877Z" fill="white"/>
<path d="M50.4259 73.1245C56.2463 72.2788 61.5619 68.5268 64.9349 63.7677C66.5028 61.5534 67.696 59.0701 68.3767 56.4329C68.9962 54.0111 69.348 51.2971 68.7285 48.8368C67.673 44.6235 63.7876 42.1247 59.6804 41.5942C57.6077 41.3251 55.4662 41.5251 53.4852 42.2093C51.3819 42.9397 49.661 44.2698 48.3608 46.092C47.6878 47.0377 46.9841 48.2063 46.9459 49.4057C46.9153 50.4513 47.6648 51.1971 48.6591 51.3662C49.8599 51.5738 51.1295 51.0587 52.1621 50.4744C53.4317 49.7594 54.5178 48.8214 55.4279 47.6758C57.2788 45.3385 58.8621 42.4861 59.6651 39.6029C60.3612 37.1042 60.2082 34.3825 59.6804 31.8684C59.1374 29.3004 58.0819 26.6787 56.2081 24.795C54.2501 22.8191 51.4584 21.8427 48.7662 21.489C46.0357 21.1276 43.1599 21.3737 40.5442 22.2809C39.4198 22.673 38.2573 23.1958 37.3854 24.0108C36.7276 24.6259 35.9781 25.6484 36.2458 26.6402C36.544 27.7474 37.9666 28.0857 38.9533 27.955C40.3912 27.7704 41.7679 26.8709 42.7851 25.8714C43.9095 24.772 44.919 23.4265 45.6686 22.0349C46.2193 21.0123 46.5558 19.8744 46.5329 18.6981C46.4334 13.8159 41.0795 10.6637 36.8729 9.7795C35.7333 9.54116 34.5861 9.46428 33.4235 9.54885C33.0334 9.5796 33.2705 10.1947 33.5841 10.1716C35.7869 10.0025 38.0661 10.6714 40.0164 11.6555C41.9132 12.6088 43.7259 14.0158 44.7661 15.9072C45.8139 17.8139 45.6992 20.0051 44.5902 21.858C43.833 23.1266 42.9152 24.4106 41.8214 25.4101C40.9113 26.2404 39.5422 27.2015 38.242 27.1092C37.8596 27.0785 37.3777 26.9016 37.2324 26.4711C37.0641 25.9713 37.4389 25.3793 37.6913 25.0718C38.3108 24.2953 39.2592 23.834 40.1617 23.4265C42.4027 22.427 44.9879 22.1041 47.4201 22.2271C49.9211 22.3578 52.5292 23.0036 54.5637 24.5413C56.4758 25.979 57.6001 28.2164 58.2808 30.4691C58.9844 32.7987 59.2751 35.3512 58.9538 37.7731C58.6173 40.2411 57.4471 42.6014 56.1775 44.7081C54.7625 47.053 52.9881 49.2981 50.3265 50.2437C49.6687 50.4744 48.292 50.8281 48.0319 49.8593C47.7719 48.9136 48.5214 47.7219 49.0109 46.9762C50.1123 45.2847 51.5961 43.97 53.4623 43.2011C55.2138 42.4784 57.1565 42.2093 59.038 42.3554C62.6404 42.6322 66.2963 44.5235 67.5506 48.1217C68.2849 50.2284 68.1396 52.5733 67.7419 54.7338C67.3059 57.1249 66.4263 59.4314 65.2102 61.5304C62.6098 66.0358 58.5485 69.4187 53.8218 71.4792C52.6898 71.9713 51.512 72.3864 50.3418 72.7785C50.2194 72.817 50.2729 73.1245 50.4106 73.1091L50.4259 73.1245Z" fill="#E0E0E0"/>
<path d="M26.1116 6.37381C23.014 6.15854 18.838 8.57271 20.3371 10.341C21.8362 12.1094 25.821 9.24929 25.821 9.24929C25.821 9.24929 25.4462 12.8244 26.7464 13.2319C28.0467 13.6394 29.7676 10.2334 28.5056 8.04989C28.5056 8.04989 30.4636 8.91869 32.3068 7.55015C34.1501 6.1816 32.1921 4.89763 29.584 5.1206C29.584 5.1206 31.4502 -1.01477 27.6796 0.146182C25.8133 0.715126 25.1479 2.94477 26.1116 6.37381Z" fill="#27DEBF"/>
<path opacity="0.65" d="M26.1116 6.37381C23.014 6.15854 18.838 8.57271 20.3371 10.341C21.8362 12.1094 25.821 9.24929 25.821 9.24929C25.821 9.24929 25.4462 12.8244 26.7464 13.2319C28.0467 13.6394 29.7676 10.2334 28.5056 8.04989C28.5056 8.04989 30.4636 8.91869 32.3068 7.55015C34.1501 6.1816 32.1921 4.89763 29.584 5.1206C29.584 5.1206 31.4502 -1.01477 27.6796 0.146182C25.8133 0.715126 25.1479 2.94477 26.1116 6.37381Z" fill="white"/>
<path d="M28.9568 7.67306C28.7886 7.50392 28.605 7.35015 28.4214 7.20407C28.1538 6.99648 27.8708 6.79658 27.6031 6.59668C27.343 6.40447 27.0677 6.23532 26.7847 6.08156C26.6241 5.98929 26.4558 5.90472 26.2799 5.83553C26.0122 5.7202 25.7827 5.67407 25.4998 5.71251C25.2321 5.74326 24.9873 6.05849 25.1938 6.31221C25.4309 6.61975 25.7292 6.68125 25.9969 6.81965C26.1346 6.88884 26.2722 6.96573 26.4099 7.0503C26.6929 7.21944 26.9453 7.41166 27.2053 7.60387C27.4654 7.79608 27.7331 7.9806 27.9931 8.17281C28.3985 8.48804 28.8115 8.79557 29.301 8.97241C29.3469 8.98778 29.4004 8.97241 29.4387 8.94934C29.7599 8.63412 29.1939 7.9114 28.9645 7.68075L28.9568 7.67306Z" fill="#455A64"/>
</g>
<defs>
<clipPath id="clip0_26_6240">
<rect width="138" height="168" fill="white"/>
</clipPath>
</defs>
</svg>
