<?xml version="1.0" standalone="no"?><!DOCTYPE svg PUBLIC "-//W3C//DTD SVG 1.1//EN" "http://www.w3.org/Graphics/SVG/1.1/DTD/svg11.dtd"><svg t="1693470054160" class="icon" viewBox="0 0 1024 1024" version="1.1" xmlns="http://www.w3.org/2000/svg" p-id="16379" xmlns:xlink="http://www.w3.org/1999/xlink" width="16" height="16"><path d="M929.28 915.456c-5.632 0-5.632 0-11.776-5.632-29.184-23.552-64-34.816-99.328-34.816s-70.144 11.776-99.328 34.816c-34.816 29.184-81.92 29.184-111.104 0-29.184-23.552-64-34.816-99.328-34.816-34.816 0-70.144 11.776-99.328 34.816-11.776 11.776-29.184 23.552-52.736 23.552-23.552 0-40.96-5.632-58.368-23.552-29.184-23.552-64-34.816-99.328-34.816-34.816 0-70.144 11.776-99.328 34.816 0 0-5.632 0-5.632 5.632l34.816 64c5.632 0 5.632-5.632 11.776-5.632 34.816-29.184 81.92-29.184 111.104 0 46.592 23.552 81.92 34.816 116.736 34.816s70.144-11.776 99.328-34.816c34.816-29.184 81.92-29.184 111.104 0 29.184 23.552 64 34.816 99.328 34.816 34.816 0 70.144-11.776 99.328-34.816 34.816-29.184 81.92-29.184 111.104 0 5.632 5.632 11.776 5.632 17.408 11.776l23.552-70.144z" p-id="16380" fill="#1890ff"></path><path d="M929.28 787.968c-5.632 0-5.632 0-11.776-5.632-29.184-23.552-64-34.816-99.328-34.816s-70.144 11.776-99.328 34.816c-34.816 29.184-81.92 29.184-111.104 0-29.184-23.552-64-34.816-99.328-34.816-34.816 0-70.144 11.776-99.328 34.816-34.816 29.184-81.92 29.184-111.104 0-29.184-23.552-64-34.816-99.328-34.816-34.816 0-70.144 11.776-99.328 34.816 0 0-5.632 0-5.632 5.632l34.816 64c5.632 0 5.632-5.632 11.776-5.632 34.816-29.184 81.92-29.184 111.104 0 29.184 23.552 64 34.816 99.328 34.816s70.144-11.776 99.328-34.816c34.816-29.184 81.92-29.184 111.104 0 29.184 23.552 64 34.816 99.328 34.816s70.144-11.776 99.328-34.816c34.816-29.184 81.92-29.184 111.104 0 5.632 5.632 11.776 5.632 17.408 11.776l40.96-70.144zM512 182.784c-114.688 0-207.36 92.672-207.36 207.36v286.208c0 16.384 13.312 29.696 29.696 29.696h355.328c16.384 0 29.696-13.312 29.696-29.696V390.144c0-114.176-92.672-207.36-207.36-207.36z m84.992 280.576L537.6 571.904c-7.68 14.336-25.6 19.456-39.936 11.776s-19.456-25.6-11.776-39.936l35.328-65.024h-68.608c-5.12 0-9.728-1.024-14.336-3.584-14.336-7.68-19.456-25.6-11.776-39.936l59.392-108.544c7.68-14.336 25.6-19.456 39.936-11.776s19.456 25.6 11.776 39.936l-35.328 65.024h68.608c5.12 0 9.728 1.024 14.336 3.584 14.336 7.68 19.968 25.6 11.776 39.936zM255.488 281.6c16.384 0 29.696 13.312 29.696 29.696 0 15.36-11.776 28.16-26.624 29.696h-62.464c-16.384 0-29.696-13.312-29.696-29.696 0-15.36 11.776-28.16 26.624-29.696h62.464z m572.416 0c16.384 0 29.696 13.312 29.696 29.696 0 15.36-11.776 28.16-26.624 29.696h-62.464c-16.384 0-29.696-13.312-29.696-29.696 0-15.36 11.776-28.16 26.624-29.696h62.464zM333.312 100.864l2.048 2.048 39.424 39.424c11.776 11.264 11.776 30.208 0.512 41.984-10.752 10.752-28.16 11.776-39.936 2.048l-2.048-2.048-39.424-39.424c-11.776-11.264-11.776-30.208-0.512-41.984 10.752-11.264 28.16-11.776 39.936-2.048z m396.8 2.048c11.776 11.776 11.776 30.208 0 41.984l-39.424 39.424c-11.776 11.776-30.208 11.776-41.984 0-11.776-11.776-11.776-30.208 0-41.984l39.424-39.424c11.776-11.776 30.72-11.776 41.984 0zM512 15.36c15.36 0 28.16 11.776 29.696 26.624v62.464c0 16.384-13.312 29.696-29.696 29.696-15.36 0-28.16-11.776-29.696-26.624V44.544c0-15.872 13.312-29.184 29.696-29.184z" p-id="16381" fill="#1890ff"></path></svg>