<?xml version="1.0" standalone="no"?><!DOCTYPE svg PUBLIC "-//W3C//DTD SVG 1.1//EN" "http://www.w3.org/Graphics/SVG/1.1/DTD/svg11.dtd"><svg class="icon" width="32px" height="32.00px" viewBox="0 0 1024 1024" version="1.1" xmlns="http://www.w3.org/2000/svg"><path d="M738.855385 880.64H285.144615a100.824615 100.824615 0 0 1-27.175384-4.726154 72.861538 72.861538 0 0 1-21.661539-14.966154 68.529231 68.529231 0 0 1-19.692307-48.836923V328.467692a85.070769 85.070769 0 0 1 5.12-26.781538A61.833846 61.833846 0 0 1 236.307692 279.630769a72.861538 72.861538 0 0 1 22.055385-14.966154 69.316923 69.316923 0 0 1 27.175385-4.726153H354.461538l7.483077 26.781538H292.233846c-18.116923 0-50.018462 23.630769-50.018461 41.747692v482.461539a49.624615 49.624615 0 0 0 42.92923 42.929231h453.71077a49.624615 49.624615 0 0 0 42.92923-42.929231V328.467692a49.230769 49.230769 0 0 0-42.92923-42.92923H669.538462v-26.781539h68.52923a100.824615 100.824615 0 0 1 27.175385 4.726154 66.166154 66.166154 0 0 1 22.055385 14.966154 61.833846 61.833846 0 0 1 14.572307 22.055384 60.258462 60.258462 0 0 1 5.12 26.781539v482.067692a87.433846 87.433846 0 0 1-5.12 27.175385 61.833846 61.833846 0 0 1-14.572307 22.055384 65.378462 65.378462 0 0 1-22.055385 14.572308 42.535385 42.535385 0 0 1-27.175385 7.483077z" fill="#00232F" /><path d="M738.855385 884.972308H285.144615a103.975385 103.975385 0 0 1-27.963077-4.726154 78.769231 78.769231 0 0 1-24.418461-16.147692 68.529231 68.529231 0 0 1-15.36-23.236924 65.772308 65.772308 0 0 1-5.513846-28.750769V328.467692a103.581538 103.581538 0 0 1 5.12-27.963077 70.892308 70.892308 0 0 1 15.753846-24.812307 75.224615 75.224615 0 0 1 23.630769-15.753846 70.892308 70.892308 0 0 1 28.750769-5.12h72.073847l9.452307 35.446153H292.233846c-16.147692 0-45.686154 22.055385-45.686154 39.384616v481.28a45.292308 45.292308 0 0 0 39.384616 39.384615h452.923077a45.292308 45.292308 0 0 0 39.384615-39.384615V328.467692a45.292308 45.292308 0 0 0-39.384615-39.384615h-72.861539v-35.446154h72.861539a90.978462 90.978462 0 0 1 28.356923 5.12 72.861538 72.861538 0 0 1 24.024615 15.753846 68.529231 68.529231 0 0 1 15.36 23.236923 65.772308 65.772308 0 0 1 5.513846 28.75077v482.855384a103.975385 103.975385 0 0 1-5.12 28.356923 78.769231 78.769231 0 0 1-15.753846 24.024616 82.707692 82.707692 0 0 1-23.630769 15.753846 46.08 46.08 0 0 1-28.750769 7.483077zM285.144615 264.270769a63.409231 63.409231 0 0 0-25.6 4.332308 69.316923 69.316923 0 0 0-20.48 13.784615 62.227692 62.227692 0 0 0-13.784615 20.873846 89.403077 89.403077 0 0 0-4.726154 25.206154v483.643077a62.621538 62.621538 0 0 0 4.726154 25.206154 63.409231 63.409231 0 0 0 34.264615 34.658462 108.701538 108.701538 0 0 0 25.6 4.332307h453.71077a39.384615 39.384615 0 0 0 24.418461-6.301538 63.409231 63.409231 0 0 0 21.661539-14.572308 57.107692 57.107692 0 0 0 13.784615-20.48 89.403077 89.403077 0 0 0 4.726154-25.6V327.286154a61.44 61.44 0 0 0-4.726154-25.206154 63.409231 63.409231 0 0 0-34.264615-34.658462 105.550769 105.550769 0 0 0-25.6-4.332307h-64.196923v18.116923h64.196923A53.563077 53.563077 0 0 1 787.692308 328.467692v482.461539a53.563077 53.563077 0 0 1-47.261539 47.261538H285.144615A53.563077 53.563077 0 0 1 236.307692 810.929231V328.467692c0-20.873846 33.476923-46.08 54.35077-46.08H354.461538l-3.938461-18.116923z" fill="#00232F" /><path d="M683.716923 334.769231H339.101538V229.218462c0-24.418462 19.692308-37.021538 44.11077-37.021539h47.655384a89.403077 89.403077 0 0 1 83.495385-48.836923 86.646154 86.646154 0 0 1 83.495385 48.836923h42.92923c24.418462 0 44.110769 12.603077 44.11077 37.021539V334.769231z m-317.833846-27.175385h291.052308v-78.769231c0-6.301538-3.938462-8.664615-12.603077-8.664615h-70.892308s0-47.655385-60.258462-47.655385a55.138462 55.138462 0 0 0-58.683076 48.049231H383.212308c-14.572308 0-16.147692 3.544615-16.147693 8.664616v78.76923z" fill="#4A78F9" /><path d="M688.049231 339.101538h-354.461539V229.218462c0-25.206154 18.904615-41.353846 48.443077-41.353847h45.292308a93.341538 93.341538 0 0 1 85.858461-48.836923 91.766154 91.766154 0 0 1 86.252308 48.836923h39.384616c29.538462 0 48.443077 16.147692 48.443076 41.353847z m-344.615385-8.664615h335.950769V229.218462c0-24.024615-20.48-32.689231-39.384615-32.689231h-44.898462v-2.363077a83.101538 83.101538 0 0 0-78.76923-46.473846 85.464615 85.464615 0 0 0-78.769231 46.473846L433.230769 196.923077H383.212308c-19.298462 0-39.384615 8.664615-39.384616 32.689231z m317.833846-18.510769h-295.384615v-4.332308h-3.150769v-78.769231c0-10.633846 8.270769-12.996923 20.48-12.996923h67.347692A59.864615 59.864615 0 0 1 512 168.566154a57.895385 57.895385 0 0 1 64.196923 47.655384h66.953846c11.027692 0 16.935385 4.332308 16.935385 12.996924zM371.396923 303.261538h281.206154V229.218462c0-2.363077 0-4.332308-8.270769-4.332308h-75.224616V220.553846s0-43.323077-55.926154-43.323077a50.412308 50.412308 0 0 0-54.350769 43.716923v3.938462H383.212308c-11.815385 0-11.815385 0-11.815385 4.332308z" fill="#3E7FFF" /><path d="M656.147692 472.615385c0-11.815385-7.483077-22.055385-16.541538-22.055385H384.393846c-9.058462 0-16.541538 10.24-16.541538 22.055385s7.483077 22.449231 16.541538 22.44923h255.212308c9.058462 1.575385 16.541538-8.664615 16.541538-22.44923zM656.147692 595.889231c0-12.209231-7.483077-22.449231-16.541538-22.449231H384.393846c-9.058462 0-16.541538 10.24-16.541538 22.449231s7.483077 22.055385 16.541538 22.055384h255.212308c9.058462 0 16.541538-10.24 16.541538-22.055384zM656.147692 717.193846c0-12.209231-7.483077-22.449231-16.541538-22.449231H384.393846c-9.058462 0-16.541538 10.24-16.541538 22.449231s7.483077 22.055385 16.541538 22.055385h255.212308c9.058462 0 16.541538-9.846154 16.541538-22.055385z" fill="#00232F" /></svg>