<svg xmlns="http://www.w3.org/2000/svg" width="72" height="63" viewBox="0 0 72 63" fill="none">
<path fill-rule="evenodd" clip-rule="evenodd" d="M1.92908 34.473C1.39179 34.1627 1.12311 33.7562 1.12305 33.3496V42.3375C1.12311 42.7441 1.39179 43.1507 1.92908 43.4609V34.473ZM37.9291 61.9977L70.0368 43.4603V43.4612C70.5743 43.1509 70.8429 42.7442 70.8429 42.3375V33.3499C70.8428 33.7564 70.5743 34.1628 70.0372 34.473V34.4721L37.9291 53.0097V61.9977ZM1.92913 34.4721L34.0368 53.0095C35.1115 53.63 36.854 53.63 37.9287 53.0095V61.9974C36.8541 62.6178 35.112 62.6179 34.0372 61.9977L34.0368 61.9974L1.92913 43.46V34.4721Z" fill="url(#paint0_linear_1541_25075)"/>
<rect x="-2.98023e-08" y="0.5" width="40.5692" height="40.5692" rx="1.5" transform="matrix(0.866025 0.5 -0.866025 0.5 36.433 13.4727)" fill="url(#paint1_linear_1541_25075)" stroke="url(#paint2_linear_1541_25075)"/>
<path fill-rule="evenodd" clip-rule="evenodd" d="M12.6807 44.3898C12.6807 44.2242 12.797 44.157 12.9405 44.2398L14.8283 45.3298C14.9718 45.4126 15.0881 45.6141 15.0881 45.7798L15.0881 49.6738C15.0881 49.8395 14.9718 49.9066 14.8283 49.8238L12.9405 48.7338C12.797 48.651 12.6807 48.4495 12.6807 48.2838L12.6807 44.3898ZM17.4933 48.2922C17.4933 48.1265 17.6096 48.0593 17.7531 48.1422L19.641 49.2321C19.7845 49.315 19.9008 49.5165 19.9008 49.6821L19.9008 52.4526C19.9008 52.6183 19.7845 52.6855 19.641 52.6026L17.7531 51.5127C17.6096 51.4298 17.4933 51.2283 17.4933 51.0627L17.4933 48.2922ZM22.5708 52.047C22.4273 51.9642 22.311 52.0314 22.311 52.197L22.311 53.844C22.311 54.0097 22.4273 54.2112 22.5708 54.294L24.4586 55.384C24.6021 55.4668 24.7184 55.3997 24.7184 55.234L24.7184 53.587C24.7184 53.4213 24.6021 53.2198 24.4586 53.137L22.5708 52.047Z" fill="#3D7FFF"/>
<rect width="2.77992" height="5.61746" rx="0.3" transform="matrix(0.866025 0.5 -2.20305e-08 1 7.86523 40.1875)" fill="#3D7FFF" fill-opacity="0.3"/>
<g opacity="0.5" filter="url(#filter0_f_1541_25075)">
<rect width="26" height="8" rx="4" transform="matrix(0.866025 0.5 -0.866025 0.5 27.9277 25)" fill="#2C6DEB" fill-opacity="0.2"/>
</g>
<path fill-rule="evenodd" clip-rule="evenodd" d="M50.4152 22.332V25.2394L50.4151 25.2395C50.413 26.0872 50.1142 26.683 49.6321 26.9615L44.2842 30.0491C44.768 29.7697 45.0672 29.1706 45.0672 28.3181L45.0673 28.318V25.4196L50.4152 22.332Z" fill="url(#paint3_linear_1541_25075)"/>
<path fill-rule="evenodd" clip-rule="evenodd" d="M32.1301 0.178008C32.614 -0.10148 33.2826 -0.0611638 34.0211 0.365199L33.9871 0.384828L47.7605 8.24659L42.4126 11.3342L28.4269 3.35128L28.4532 3.33611C27.8026 3.02167 27.2179 3.01417 26.7826 3.26541L32.1301 0.178008ZM47.762 8.25195C49.2382 9.10424 50.435 11.1765 50.4359 12.8814L50.4368 12.8809L50.4368 16.2685L55.9312 15.2949L50.5833 18.3825L45.0943 19.3552L45.0889 19.3583V19.3561V15.9705L45.088 15.971C45.088 14.2657 43.8908 12.1922 42.4141 11.3396L47.762 8.25195ZM55.9319 15.2972C56.8211 15.1396 58.0002 16.5571 58.0002 17.7837L52.6523 20.8713C52.6523 19.6447 51.4732 18.2273 50.584 18.3848L55.9319 15.2972ZM57.9993 17.7891V29.5493L57.997 29.5506C57.9943 29.9835 57.8436 30.2688 57.6106 30.4034L52.2627 33.491C52.4978 33.3553 52.6491 33.0661 52.6491 32.6267L52.6514 32.6254V20.8767L57.9993 17.7891Z" fill="url(#paint4_linear_1541_25075)"/>
<path d="M28.674 3.41598C27.9355 2.98962 27.2669 2.9493 26.783 3.22879C26.2992 3.50821 26 4.10727 26 4.95979L26 17.3102C26 19.0155 27.1972 21.089 28.674 21.9417L42.4155 29.8647C43.154 30.2911 43.8225 30.3314 44.3065 30.0519C44.7902 29.7725 45.0895 29.1734 45.0895 28.3209V25.4136L50.5839 32.7316C51.1546 33.4917 51.8447 33.7409 52.2659 33.4977C52.5009 33.362 52.6523 33.0728 52.6523 32.6334V20.8732C52.6523 19.6466 51.4732 18.2291 50.5839 18.3867L45.0895 19.3603V15.9705C45.0895 14.2652 43.8923 12.1917 42.4155 11.3391L28.674 3.41598Z" fill="url(#paint5_linear_1541_25075)"/>
<defs>
<filter id="filter0_f_1541_25075" x="19.0283" y="22.1719" width="33.3867" height="22.6562" filterUnits="userSpaceOnUse" color-interpolation-filters="sRGB">
<feFlood flood-opacity="0" result="BackgroundImageFix"/>
<feBlend mode="normal" in="SourceGraphic" in2="BackgroundImageFix" result="shape"/>
<feGaussianBlur stdDeviation="2" result="effect1_foregroundBlur_1541_25075"/>
</filter>
<linearGradient id="paint0_linear_1541_25075" x1="32.4998" y1="36.9556" x2="85.0834" y2="41.3123" gradientUnits="userSpaceOnUse">
<stop stop-color="#C5DBFF"/>
<stop offset="0.107653" stop-color="#A7C8FF"/>
<stop offset="0.4664" stop-color="#BCD2FF"/>
<stop offset="1" stop-color="#8EBAFF"/>
</linearGradient>
<linearGradient id="paint1_linear_1541_25075" x1="9.66609" y1="28.5326" x2="36.4331" y2="16.0564" gradientUnits="userSpaceOnUse">
<stop stop-color="#FEFEFF"/>
<stop offset="1" stop-color="#F1F6FF"/>
</linearGradient>
<linearGradient id="paint2_linear_1541_25075" x1="33.5792" y1="5.74304" x2="14.1614" y2="47.3504" gradientUnits="userSpaceOnUse">
<stop stop-color="#ABCBFF" stop-opacity="0.27"/>
<stop offset="1" stop-color="#D8E7FF" stop-opacity="0.07"/>
</linearGradient>
<linearGradient id="paint3_linear_1541_25075" x1="46.419" y1="26.0067" x2="47.3478" y2="30.0495" gradientUnits="userSpaceOnUse">
<stop stop-color="#1D66F5"/>
<stop offset="1" stop-color="#699EFF"/>
</linearGradient>
<linearGradient id="paint4_linear_1541_25075" x1="26.2671" y1="-0.634813" x2="42.7432" y2="34.591" gradientUnits="userSpaceOnUse">
<stop stop-color="#A6C4FF"/>
<stop offset="0.360798" stop-color="#7BA8FF"/>
<stop offset="0.622089" stop-color="#72A2FF"/>
<stop offset="0.72536" stop-color="#1A67FF"/>
<stop offset="1" stop-color="#689DFF"/>
</linearGradient>
<linearGradient id="paint5_linear_1541_25075" x1="28.6889" y1="19.1259" x2="28.6889" y2="33.5886" gradientUnits="userSpaceOnUse">
<stop stop-color="#5A92FF"/>
<stop offset="1" stop-color="#2F75FF"/>
</linearGradient>
</defs>
</svg>